<?xml version="1.0" encoding="utf-8"?>
<!-- Generator: Adobe Illustrator 18.0.0, SVG Export Plug-In . SVG Version: 6.00 Build 0)  -->
<!DOCTYPE svg PUBLIC "-//W3C//DTD SVG 1.1//EN" "http://www.w3.org/Graphics/SVG/1.1/DTD/svg11.dtd">
<svg version="1.1" id="Layer_1" xmlns="http://www.w3.org/2000/svg" xmlns:xlink="http://www.w3.org/1999/xlink" x="0px" y="0px"
	 width="800px" height="600px" viewBox="0 0 800 600" enable-background="new 0 0 800 600" xml:space="preserve">
<g>
	<linearGradient id="SVGID_1_" gradientUnits="userSpaceOnUse" x1="397.1772" y1="87.6073" x2="544.1699" y2="354.5939">
		<stop  offset="0" style="stop-color:#662D91"/>
		<stop  offset="1" style="stop-color:#EE2A7B"/>
	</linearGradient>
	<path fill="url(#SVGID_1_)" d="M592.9,55.4c-69.8-16.4-85.2,43.3-122.8,84.9s-58.7-7.5-132.1,5.1s-14.4,96.9-67.9,131.9
		s-57.4,109,0,129.8s96.4,9.7,153.4-37.2s46.6,32,128.3,19.5c81.7-12.5,59.2-71.9,111.7-89.4s60-16.6,49.5-70.6
		c-10.5-54,53.2-75.5,4.1-143.2S654.4,69.9,592.9,55.4z"/>
	<linearGradient id="SVGID_2_" gradientUnits="userSpaceOnUse" x1="828.9489" y1="463.0384" x2="581.4612" y2="262.0485">
		<stop  offset="0" style="stop-color:#EE2A7B"/>
		<stop  offset="1" style="stop-color:#FBB040"/>
	</linearGradient>
	<path fill="url(#SVGID_2_)" d="M729.4,158.4c-59.2-22.1-101.5,25-73.3,83.5c28.3,58.5-87.2-5.6-121.7,76.7S530,505.4,638,497.4
		s125.2-82.5,103.4-127C702.4,290.4,847.9,202.6,729.4,158.4z"/>
	<linearGradient id="SVGID_3_" gradientUnits="userSpaceOnUse" x1="554.8138" y1="308.5071" x2="210.947" y2="652.374">
		<stop  offset="0" style="stop-color:#F9ED32"/>
		<stop  offset="0.9839" style="stop-color:#8DC63F"/>
	</linearGradient>
	<path fill="url(#SVGID_3_)" d="M228.4,516.9c-68.2,7.5-99-72-48-151.5s121.5-5.1,165-8.5s48-79,91.5-79.5
		c43.5-0.5,45.1,73.4,97.6,56c52.4-17.5,45.1,54.9,32.2,93c-12.8,38,84.7,2.5,89.2,66.7s-53.5,84.4-119.8,63.5
		c-66.2-20.9-100.7,51.8-183.2,44.3S273.3,512,228.4,516.9z"/>
	<linearGradient id="SVGID_4_" gradientUnits="userSpaceOnUse" x1="436.2657" y1="34.1973" x2="-31.5109" y2="501.9738">
		<stop  offset="1.612903e-002" style="stop-color:#8DC63F"/>
		<stop  offset="1" style="stop-color:#00AEEF"/>
	</linearGradient>
	<path fill="url(#SVGID_4_)" d="M170.7,76.9c-51.4,14.8-73.5,83.4-48,138.7s1.5,70.3-27,137.8s-7.5,157.9,60,132.9
		c67.5-24.9,62-56.5,91-118s54.5-23.9,93.5-65.9s-3-67,25.5-107.8s54.4,35.9,112.5,21c58.1-14.9,63-98.8-21-108
		s-75.4,55.3-142.7,9.5S206.2,66.8,170.7,76.9z"/>
	<linearGradient id="SVGID_5_" gradientUnits="userSpaceOnUse" x1="772.7537" y1="577.5951" x2="608.7011" y2="413.5425">
		<stop  offset="0" style="stop-color:#262262"/>
		<stop  offset="1" style="stop-color:#662D91"/>
	</linearGradient>
	<path fill="url(#SVGID_5_)" d="M800,254c-27.1,52.5-106.6,24.4-102.1,103.7s-21,54.2-78,81.7S617,514,551.7,545.2
		c-65.3,31.3-0.5-70.3-81.7-84.8C388.9,446,388.9,574,450.4,600H800V254z"/>
	<linearGradient id="SVGID_6_" gradientUnits="userSpaceOnUse" x1="98.2495" y1="662.5654" x2="265.4754" y2="430.7294">
		<stop  offset="0" style="stop-color:#662D91"/>
		<stop  offset="1" style="stop-color:#EE2A7B"/>
	</linearGradient>
	<path fill="url(#SVGID_6_)" d="M0,202.6c0,0-7.1,120.3,70.9,144.3S133.1,449,177,476s67.9-45,136.9-54c69-9,106.5,71.4,55.5,117.4
		s78,80.4,87,1c9-79.4,123,0.6,117,59.6H-0.2L0,202.6z"/>
	<linearGradient id="SVGID_7_" gradientUnits="userSpaceOnUse" x1="-11.1307" y1="319.4575" x2="145.0956" y2="102.8711">
		<stop  offset="0" style="stop-color:#EE2A7B"/>
		<stop  offset="1" style="stop-color:#FBB040"/>
	</linearGradient>
	<path fill="url(#SVGID_7_)" d="M127.9,0c-48,26,72,91.4,15,158.4s72,142,22.5,220S0,347.4,0,260.9V0H127.9z"/>
	<linearGradient id="SVGID_8_" gradientUnits="userSpaceOnUse" x1="70.931" y1="115.492" x2="612.4429" y2="115.492">
		<stop  offset="1.075269e-002" style="stop-color:#1C75BC"/>
		<stop  offset="1" style="stop-color:#00AEEF"/>
	</linearGradient>
	<path fill="url(#SVGID_8_)" d="M34.9,0c27,0,49.5,93.5,102,104s59.1-20.6,100.8-17.8s19.9,132.9,82.9,143.7s90.7-65.5,129.7-87.5
		s47.2,65,95.2,42.5s56.2-86.6-8.2-98.8C472.9,74,446.1-16.6,519.5,26.4S640.9,0,640.9,0H34.9z"/>
	<linearGradient id="SVGID_9_" gradientUnits="userSpaceOnUse" x1="795.9108" y1="-16.991" x2="546.7607" y2="232.1592">
		<stop  offset="0" style="stop-color:#262262"/>
		<stop  offset="0.9892" style="stop-color:#1C75BC"/>
	</linearGradient>
	<path fill="url(#SVGID_9_)" d="M411.4,0c54,0,48,87.5,102,105.5s66-20.6,117-19.3s19.5,72.2,72,89.2s76.5,30.5,31.5,78.5
		c-45,48,66.1,92.4,66.1,92.4V0H411.4z"/>
	<linearGradient id="SVGID_10_" gradientUnits="userSpaceOnUse" x1="395.5607" y1="-77.0019" x2="469.5485" y2="57.3841">
		<stop  offset="0" style="stop-color:#F9ED32"/>
		<stop  offset="0.9839" style="stop-color:#8DC63F"/>
	</linearGradient>
	<path fill="url(#SVGID_10_)" d="M275.7-0.5c36,0,57,71.4,124.5,73c67.5,1.5,31.6-55,95.3-36.5S599.9,0,599.9,0L275.7-0.5z"/>
	<linearGradient id="SVGID_11_" gradientUnits="userSpaceOnUse" x1="-5.7919" y1="433.1858" x2="80.9429" y2="590.7247">
		<stop  offset="1.075269e-002" style="stop-color:#1C75BC"/>
		<stop  offset="1" style="stop-color:#00AEEF"/>
	</linearGradient>
	<path fill="url(#SVGID_11_)" d="M-0.2,442.4c17.1,55.4,71.1-3,99.6,29c38.7,43.5,16.5,128,16.5,128L-0.2,600V442.4z"/>
</g>
</svg>
